<?xml version="1.0" encoding="UTF-8" standalone="no"?>
<svg xmlns:rdf="http://www.w3.org/1999/02/22-rdf-syntax-ns#" xmlns="http://www.w3.org/2000/svg" height="739.66pt" width="720pt" version="1.1" xmlns:cc="http://creativecommons.org/ns#" xmlns:dc="http://purl.org/dc/elements/1.1/" viewBox="0 0 720 739.66382">
<g transform="matrix(5.4999 0 0 5.4999 -6.6515 -8.5249)">
<path d="m151.56 1.9375c-4.5875 2.1375-8.6629 5.2242-13.025 7.7617-3.725 2.5125-7.9113 4.4891-11.111 7.7266-1.9875 2.2875-3.4 4.9996-5.3125 7.3496-13.45-3.525-25.389-11.887-39.352-13.912-9.475-2.175-18.137 2.9996-27.199 4.7246-8.1375 1.9-15.212 6.9754-21.25 12.588 10.3-3.2625 20.85-5.675 31-9.375 6.8125-2.2875 14.05-0.20117 20.838 1.1738 6.2375 1.025 12.062 3.5375 17.787 6.125 4.4875 2.1 9.2246 3.7996 13.35 6.5996-1.6625 5.4875-4.6254 10.477-6.2129 15.977 5.275-2.7375 6.2133-9.0625 9.4883-13.5 8-0.2 15.125 4.7367 22.975 5.6367 8.2-3.25 15.776-8 21.613-14.688-0.0875-6.2625-1.0012-12.737-4.1387-18.262-1.94-3.3387-6.32-4.152-9.45-5.927zm0.002 11.908c1.1907 0.0062 2.2934 0.29492 3.123 1.2793 4.325 4.225 2.4871 12.062-2.8379 14.5-7.0875-0.7125-14.2-1.3629-21.225-2.4629-2.125-3.6125 1.5629-6.7488 3.7754-9.2363 2.875-3.1625 7.3867-3.1008 11.324-3.6758 1.625 0.35938 3.8554-0.41455 5.8398-0.4043zm-143.84 2.722c-0.36777-0.01519-0.73789 0.01016-1.1113 0.08203-2.2875 3.1625-4.0641 6.7629-5.1016 10.525 2.475 3.9 5.8004 7.1613 8.9004 10.549 0.4125-0.275 1.2133-0.83633 1.6133-1.1113 1.35-5.325 1.9496-10.825 2.5996-16.275-1.9141-1.5969-4.326-3.6632-6.9004-3.7695zm18.953 13.051c-1.0018-0.0084-2.0457 0.27109-3.002 0.91797-3.7625 3.4625-6.4008 8-10.363 11.25-2.725-0.275-5.3383-1.1988-8.0508-1.4863 0.425 5.25 1.5 13.911 8.3125 14.523 4.8625-7.2875 10.601-13.824 17.363-19.424 1.3594-3.1312-1.2545-5.7561-4.2598-5.7812zm-4.74 18.494c-0.0625 2.4-0.075 5.1859 2 6.8359 3.5625 2.85 8.6 2.6004 12.875 2.4004 1.187-2.262 1.938-4.749 2.113-7.287-5.25-2.612-11.364-1.474-16.988-1.949zm71.029 6.6094c-5.1126-0.000243-10.221 0.32812-15.205 1.5156-4.7375 1.025-9.4363 2.2984-14.049 3.7734-4.95 1.625-9.0746 5.0508-13.912 6.8633-2.275-0.3-4.4629-1.3117-6.7754-1.2617-5.5375 3.3875-7.8371 9.6867-11.287 14.824-3.9125 3.125-8.8133 5.5383-11.238 10.176-3.0875 4.7375-2.7871 10.712-5.2246 15.687-3.15 4.4625-7.8383 7.5363-11.301 11.736 0.1625 6.6625 3.9383 12.713 4.6133 19.301-0.175 2.7-1.8254 4.975-2.6504 7.5-3.1 7.4125-1.7246 15.612-0.34961 23.225 14.225 2.55 28.736 1.8496 43.111 1.9746 24.788-0.125 49.651 0.57617 74.363-1.7363 8.5375-0.7875 16.588-3.9379 25.051-5.1504 4.5625-0.875 9.5988-1.3496 13.174-4.6621-1.6125-8.6125-8.2379-16.752-4.9004-25.727 1.65-4.3 3.75-8.6621 2.4375-13.475 1.3-6.4875-3.6488-10.75-8.2363-14-4.775-3.0875-2.0887-10.088-4.7637-14.463-2.625-3.75-5.8-7.0738-8.375-10.861-2.175-3.15-4.2246-6.5371-7.4121-8.7871-3.9-2.7375-8.1004-5.0512-11.9-7.9512-4.8625-3.45-9.7488-7.8242-15.986-8.2617-3.0469-0.12188-6.1161-0.24009-9.1836-0.24024z" transform="scale(.8)" fill="#4b0162"/>
<path d="m95.139 61.074c-2.0889 0.02129-4.1566 0.07891-6.1504 0.05078-2.9375 0.175-8.7879 0.52422-11.713 0.69922-6.9375 1.25-13.225 4.6879-19.912 6.7754 15.7 7.6375 34.275 6.3508 50.312 0.42578 2.025-0.875 4.4367-1.6621 5.3242-3.9121-5.1469-3.8438-11.595-4.1029-17.861-4.0391zm26.861 10.201c-5.7375 0.4375-10.95 3.2625-15.938 5.9375-2.4875 1.25-5.0008 2.7863-7.8633 2.8613-7.875 0.3625-15.737 0.28867-23.6-0.23633-5.8875-0.0375-11.225-2.5125-16.713-4.25-4.5875-1.425-9.1871-2.9133-13.85-4.1133-2.9625 2.6-4.9254 6.1504-6.4004 9.7754 3.6125 1.975 7.5383 3.2621 11.426 4.5996 6.5 2.0125 13.062 4.5387 20.012 4.2012 12.262 0.1125 24.788 0.29922 36.713-3.0508 7.85-2.3 15.95-3.7117 23.688-6.3867-2.1875-3.375-4.6746-6.4879-7.4746-9.3379zm11.68 15.262c-0.83111 0.04829-1.7301 0.34648-2.7051 0.97461-8.55 1.7625-16.125 6.7891-24.938 7.5391-6.553 1.237-13.228 1.187-19.852 1.261-12.488-0.062-25.013-0.149-37.413-1.787-5.012-2.05-9.25-6.651-15.15-5.763l-5.0879 0.15039c-4.6125 4.5125-7.7375 11.101-5.6875 17.676 3.6625 1.4375 7.5879 2.0504 11.4 2.9629 17.6 3.325 35.237 7.2242 53.262 6.9492 7.0625-0.5125 14.838 0.82422 21.363-2.5508 9.6125-4.825 19.849-8.2484 29.449-13.086 2.55-1.25 5.4766-4.4875 3.2891-7.3125-1.9805-2.732-4.3321-7.2229-7.9336-7.0137zm9.582 19.338-0.79883 0.16211c-2.5 0.6625-4.825 1.8379-7.125 2.9629-6.9125 3.6125-14.113 6.5992-21.051 10.137-3.125 1.4375-6.2754 3.1891-9.7754 3.3516-14.438 0.375-28.95 0.63711-43.313-1.0879-8.897-1.54-17.771-3.25-26.696-4.59-5.438-0.81-10.15-3.92-15.463-5.16-3.9375 2.15-7.0242 5.5246-10.012 8.7871 0.725 5.95 3.5879 11.451 6.7754 16.426 6.3875 2.6125 13.574 1.9625 20.236 3.3125 9.7625 0.9625 19.35 3.8609 29.25 3.3984 0.4375-0.25 1.3254-0.77344 1.7754-1.0234 3.0125-5.025 4.2121-10.889 6.9121-16.076 7.15-0.175 15.226-1.2125 21.676 2.625 3.8125 3.65 6.5992 8.2383 10.324 11.988 8.2375 0.6125 16.388-1.6629 24.426-3.1504 4.425-1.175 9.4004-1.4617 13.338-4.0742 3.3875-2.6875 5.8367-6.3516 8.3867-9.7891 2-2.7375 2.4121-5.8125 1.2246-9.25-3.1375-3.225-6.7129-5.9867-10.088-8.9492zm4.6641 31.676c-2.425 1.975-3.8516 5.6109-7.2266 6.0859-8.7125 1.2125-17.475 2.4016-25.912 4.9766-6.25 1.925-12.874 1.1375-19.299 1.5-8.6125-0.4375-16.812 3.0484-25.438 2.5234-19.325-0.8375-37.913-7.3121-57.15-8.7871-3.3625 2.2125-3.65 6.5-4 10.188-0.7625 2.5625-0.43828 7.1758 2.8242 7.9883 13.175 3.8875 27.15 2.8496 40.713 3.0371 16.312-0.425 32.725 1.0746 48.963-1.2129 12.675-1.4875 25.561-1.5621 38.049-4.4121 5.2875-1.15 10.988-1.5008 15.688-4.4258-1.7-5.65-3.2625-11.387-5.4375-16.887-0.4375-0.15-1.3234-0.43672-1.7734-0.57422z" transform="scale(.8)" fill="#fbae08"/>
</g>
</svg>
